<svg xmlns="http://www.w3.org/2000/svg" version="1.1" xmlns:xlink="http://www.w3.org/1999/xlink" xmlns:svgjs="http://svgjs.dev/svgjs" viewBox="0 0 9.471737001697695 9.862070919788025"><g transform="matrix(1,0,0,1,2.51710538815581,3.4392824320607547)"><rect width="9.862070919788025" height="9.862070919788025" x="-2.712272347200975" y="-3.4392824320607547" fill="#343432"></rect><g><path d=" M -0.02484756804390098 -0.8689407271666203 L -0.5000474238356368 -0.9590479499950724 L -0.22829935153121642 -0.6745836916349798 L -0.40873622738422016 -0.5022127460956063 L -1.0287439651661503 -1.1512331413831962 L -0.8483070893131466 -1.3236040869225698 L -0.5809562350071795 -1.0437428100893396 L -0.6466964984365762 -1.516202235254829 L -0.4386417334223983 -1.7149564887849227 L -0.37630646541965457 -1.1723366600276524 L 0.193333756329374 -1.0773688602933116 L -0.02484756804390098 -0.8689407271666203 M 1.0488357667259278 -1.5315752594854017 L 0.8264991026244763 -1.418280878203856 L 0.3026835130560688 -1.7143564503543072 L 0.5304283407342782 -1.2674143806809812 L 0.30809167663282666 -1.1541199993994353 L -0.09942127644620291 -1.9538513677235338 L 0.12291538765524862 -2.0671457490050797 L 0.6496211400114508 -1.765398323178571 L 0.4189861495454468 -2.2180122465279544 L 0.6413228136468982 -2.3313066278095 L 1.0488357667259278 -1.5315752594854017 M 1.761866744686952 -1.8333797698072682 L 1.4484158235313296 -1.7780992788263787 L 1.4262003093668842 -1.6255092204656973 L 1.1679167503346515 -1.5799580958974446 L 1.3342533127165233 -2.5207180382846537 L 1.6176129454412056 -2.5706916021313777 L 2.094477673270671 -1.7433672272369536 L 1.8349403105538156 -1.6975949807047772 L 1.761866744686952 -1.8333797698072682 M 1.6672620695519162 -2.0106153462683873 L 1.521557181746036 -2.2796773171041247 L 1.4779377131739206 -1.9772259297159303 L 1.6672620695519162 -2.0106153462683873 M 3.1321713096902326 -2.536361384304791 L 2.751028369132668 -1.9623924083270112 L 2.7196803404029914 -1.6789342758031394 L 2.4703890363529792 -1.7065037474984353 L 2.5017370650826556 -1.9899618800223071 L 2.255222712194504 -2.6333443481872267 L 2.538680844718376 -2.601996319457551 L 2.6575297046223407 -2.240443785488921 L 2.852509491441234 -2.5672895733639804 L 3.1321713096902326 -2.536361384304791 M 3.731406428754051 -1.525981714272526 L 3.437609517755441 -1.6484185867581918 L 3.3366314259402463 -1.5318824123166523 L 3.0945427712773914 -1.632770395244841 L 3.7418379761935396 -2.3354125793456566 L 4.007430383736283 -2.224729646618615 L 3.963006440189283 -1.2708470001772132 L 3.7197425978824334 -1.3722247305953443 L 3.731406428754051 -1.525981714272526 M 3.747284357689723 -1.7262574878788826 L 3.7696325244530726 -2.0314210799452574 L 3.5698310234465627 -1.8002093588602246 L 3.747284357689723 -1.7262574878788826 M 5.457885985432907 -1.1881942349270727 L 4.863752505061157 -0.5154071393982728 L 4.6767081494247815 -0.6805846743668725 L 5.004534991785931 -1.0518104618288628 L 4.549785193814384 -0.7926694302384224 L 4.393278692159457 -0.9308792043958223 L 4.595756498549339 -1.4178954140654734 L 4.265401428612139 -1.043806702792722 L 4.0783570729757646 -1.208984237761322 L 4.672490553347513 -1.8817713332901218 L 4.898661534397621 -1.682041354782172 L 4.681597962622211 -1.0958028926857324 L 5.23266931231972 -1.3870814709096724 L 5.457885985432907 -1.1881942349270727" fill="#f9f9f9" fill-rule="nonzero"></path></g><g><path d=" M -1.0897436230866648 0.7520965852911872 Q -1.139116330916238 0.800490753309845 -1.2050206432566333 0.8146665860252098 Q -1.2709249555970288 0.8288424187405745 -1.3438618359783523 0.805643155156269 Q -1.4160974002021631 0.7826669614141203 -1.4620530149850477 0.7329114888747486 Q -1.5080086297679323 0.6831560163353767 -1.5202402088784008 0.6147810441281656 Q -1.5324717879888694 0.5464060719209545 -1.507934105351623 0.46926129459455446 L -1.449266736864389 0.2848151451687073 L -0.9569427942904547 0.44141017436276947 L -1.0156101627776888 0.6258563237886166 Q -1.040370915257092 0.7037024172725292 -1.0897436230866648 0.7520965852911872 M -1.3981993355935147 0.6122825949198498 Q -1.3730753507218065 0.6619763690598465 -1.305047683443072 0.6836141437490545 Q -1.2370200161643377 0.7052519184382625 -1.1871031721821839 0.6794266174090416 Q -1.1371863282000303 0.6536013163798207 -1.1155485535108223 0.5855736491010861 L -1.097479896296123 0.5287670403425553 L -1.3836168885613154 0.43775454474258757 L -1.401685545776015 0.49456115350111846 Q -1.423323320465223 0.562588820779853 -1.3981993355935147 0.6122825949198498 M -1.2328058271952096 1.080386221744794 L -1.3358816657055663 1.0631732963704073 L -1.3636405383163728 1.229401233123025 L -1.459457514959803 1.2134004855919052 L -1.4316986423489966 1.0471725488392876 L -1.5434851150996654 1.028505010052981 L -1.5748805212402717 1.2165095324063784 L -1.6743269288171652 1.1999026959536252 L -1.622203281556699 0.887771635675784 L -1.112631178498456 0.9728665202731033 L -1.1647548257589222 1.2849975805509444 L -1.264201233335816 1.2683907440981912 L -1.2328058271952096 1.080386221744794 M -1.6820527905949085 1.4527631012169122 Q -1.6620900872885558 1.4085442854786947 -1.6251085775457381 1.3829647435769883 Q -1.5881270678029207 1.357385201675282 -1.5373269832051113 1.3576964603919488 L -1.5420279313179137 1.491554627066959 Q -1.5708151417177851 1.4934892187719082 -1.58648664843994 1.5098758583170335 Q -1.6021581551620947 1.5262624978621586 -1.6031138424157962 1.553475421856529 Q -1.604095359054733 1.5814238302831796 -1.591792627965002 1.598056502034961 Q -1.5794898968752713 1.614689173786743 -1.5566898794745827 1.6154898847290333 Q -1.5375672842352954 1.616161448745148 -1.5246120346449152 1.6037295707292412 Q -1.5116567850545348 1.5912976927133344 -1.5029078069759547 1.5728269629277745 Q -1.4941588288973746 1.5543562331422143 -1.4826480657393974 1.5201500762183338 Q -1.4654464944655194 1.4706795519132136 -1.448890657822521 1.4395961384151006 Q -1.4323348211795226 1.4085127249169873 -1.4013792485137406 1.386771712310941 Q -1.3704236758479587 1.3650306997048949 -1.3218817033174606 1.3667354391304167 Q -1.2498042289539932 1.3692667188834642 -1.2108187293141357 1.4229196444559162 Q -1.171833229674278 1.476572570028368 -1.1747777795910883 1.5604177953083198 Q -1.177773988278369 1.6457339894528318 -1.220427260621622 1.6965198532641792 Q -1.263080532964875 1.7473057170755264 -1.3360226386867984 1.7484260300986452 L -1.3312442024182904 1.6123614101267938 Q -1.3061860729502905 1.6117686403602294 -1.291250050660416 1.595356171429869 Q -1.2763140283705416 1.5789437024995086 -1.2753841705020752 1.5524662629374186 Q -1.2745834595597847 1.52966624553673 -1.2862281943729408 1.5152658564670243 Q -1.2978729291860969 1.5008654673973187 -1.3206729465867855 1.500064756455028 Q -1.345679417284315 1.499186557357032 -1.3604801618251658 1.5222313008705326 Q -1.375280906366017 1.545276044384033 -1.3932179620721752 1.5947207393039178 Q -1.4118905022106136 1.6441396048385677 -1.4284334241609944 1.6748552761205406 Q -1.4449763461113754 1.7055709474025136 -1.475196434344877 1.7273377893937951 Q -1.5054165225783787 1.7491046313850764 -1.551752041812036 1.7474773801152603 Q -1.5958811077488526 1.7459276170011495 -1.6311320486809133 1.7222297019400774 Q -1.6663829896129738 1.698531786879005 -1.6862139338054616 1.6551246376349291 Q -1.7060448779979491 1.6117174883908527 -1.70400435656437 1.5536142182407109 Q -1.7020154939012613 1.4969819169551295 -1.6820527905949085 1.4527631012169122 M -1.1720947615750545 1.9815126936889345 L -1.6875073367508804 2.0169350729209294 L -1.6961358650253406 1.8913858558909205 L -1.1807232898495146 1.8559634766589255 L -1.1720947615750545 1.9815126936889345 M -1.2644932833584681 2.4594621102143535 Q -1.2418074661778238 2.4409057515366963 -1.2333226397396024 2.41269353887603 Q -1.2248378133013809 2.3844813262153637 -1.2314489213150734 2.34978046116019 Q -1.2428806289220833 2.2897768820022852 -1.289167140301075 2.2611365097936926 Q -1.3354536516800666 2.2324961375851 -1.401240708347167 2.2450296965277254 Q -1.4713653731461638 2.2583896439720625 -1.5035344142875828 2.303850077350039 Q -1.5357034554290019 2.349310510728015 -1.5230321650694245 2.415820502083765 Q -1.5143550858014532 2.4613653874686805 -1.4852298591272617 2.48840564108247 Q -1.4561046324530704 2.5154458946962595 -1.4099739227950647 2.521640703452133 L -1.4398616402736328 2.3647638760152017 L -1.3487718695038018 2.3474097174792585 L -1.2975357823976847 2.6163414216568555 L -1.4124823978929477 2.638240716952212 Q -1.4613671148885994 2.633319768552796 -1.5073953022356321 2.6080014681516017 Q -1.5534234895826646 2.5826831677504076 -1.587644468183381 2.536760607721311 Q -1.6218654467840974 2.490838047692215 -1.6339858114758672 2.4272197950910632 Q -1.6483098788388677 2.35203458747152 -1.6266414609868995 2.286848630875277 Q -1.6049730431349316 2.2216626742790337 -1.5526821128256385 2.1776129011723775 Q -1.5003911825163456 2.133563128065721 -1.4252059748968025 2.1192390607027205 Q -1.3500207672772593 2.10491499333972 -1.2848348106810161 2.126583411191688 Q -1.2196488540847727 2.148251829043656 -1.1755990809781165 2.200542759352949 Q -1.1315493078714602 2.2528336896622423 -1.1172252405084597 2.3280188972817855 Q -1.099871081972517 2.4191086680516163 -1.1320563304137918 2.4900441350538616 Q -1.1642415788550666 2.560979602056107 -1.2384620455545536 2.5960967663691 L -1.2644932833584681 2.4594621102143535 M -1.372366448927784 3.273892633584666 L -1.4163907221372962 3.155998949422173 L -1.191495850181513 2.8473433706491216 L -1.490021962709931 2.95882003906853 L -1.5340462359194431 2.840926354906037 L -1.0500616377786827 2.6601951280459337 L -1.0060373645691703 2.778088812208427 L -1.2323111100239301 3.0872592947617066 L -0.9324061239965357 2.9752677225620703 L -0.8883818507870234 3.093161406724563 L -1.372366448927784 3.273892633584666 M -0.520066869761171 3.7205270785312408 L -0.9078564645038818 3.7557530691422736 L -1.0518065302803539 3.847566464473002 L -1.1194793345973995 3.741465338404999 L -0.9755292688209274 3.6496519430742707 L -0.7800729074003461 3.3128753836383864 L -0.703297913028961 3.433247421399747 L -0.8318957473966495 3.6339816764550674 L -0.5960503693452222 3.601395989612781 L -0.520066869761171 3.7205270785312408 M -0.7669086566654935 4.185021549581127 Q -0.7822195898168298 4.117213687640128 -0.7608269973917743 4.050111959874355 Q -0.7394344049667188 3.9830102321085823 -0.6829851790906663 3.93242004417057 Q -0.6265359532146138 3.881829856232557 -0.5577741994589833 3.868134633359465 Q -0.4890124457033529 3.8544394104863726 -0.4232808447792318 3.877059920094389 Q -0.35754924385511067 3.899680429702406 -0.3089237234098362 3.9539374526318163 Q -0.26029820296456174 4.0081944755612255 -0.2449872698132255 4.076002337502225 Q -0.22967633666188925 4.143810199443225 -0.25128607059179897 4.210118293035745 Q -0.2728958045217087 4.276426386628264 -0.3293450303977612 4.327016574566277 Q -0.3857942562738138 4.37760676250429 -0.45458445196118225 4.3918215941823044 Q -0.5233746476485508 4.40603642586032 -0.5888606651360795 4.3836899416206325 Q -0.6543466826236083 4.361343457380946 -0.7029722030688828 4.307086434451537 Q -0.7515977235141572 4.252829411522127 -0.7669086566654935 4.185021549581127 M -0.520723502453486 4.276671881417268 Q -0.4652287341046648 4.276843098720296 -0.41480806633187994 4.231655746387315 Q -0.36383934782243443 4.185977227181147 -0.3582264590335872 4.131040903518037 Q -0.35261357024473994 4.076104579854927 -0.3938715875922455 4.030068317975427 Q -0.4356207718129357 3.9834840053592675 -0.4905674894250962 3.9828216211830547 Q -0.5455142070372567 3.9821592370068415 -0.597030976283363 4.028328923086193 Q -0.6479996947928084 4.07400744229236 -0.6536125835816557 4.12894376595547 Q -0.6592254723705031 4.18388008961858 -0.6174762881498128 4.23046440223474 Q -0.5762182708023073 4.27650066411424 -0.520723502453486 4.276671881417268 M 0.02679241007950306 4.291280284550477 L -0.16598414407982598 4.532892029398648 Q -0.19490062720372536 4.569133791125874 -0.19267310042068703 4.6029215828015335 Q -0.19044557363764864 4.636709374477193 -0.1559296100879099 4.66424888221424 Q -0.12141364653817116 4.691788389951287 -0.08739941159398384 4.6869170813995265 Q -0.05338517664979653 4.682045772847767 -0.0244686935258972 4.645804011120541 L 0.16830786063343184 4.40419226627237 L 0.26667835675018736 4.482679863322954 L 0.07436079438647569 4.723716342111962 Q 0.031215565598435357 4.77779135167322 -0.021629543483191405 4.796823973694072 Q -0.07447465256481817 4.815856595714925 -0.12845184081365008 4.803858429463103 Q -0.18242902906248204 4.791860263211281 -0.23017611197295396 4.753763944175033 Q -0.2779231948834259 4.715667625138784 -0.3006858884009902 4.666907515603066 Q -0.3234485819185545 4.618147406067348 -0.3152447295537794 4.563025790958753 Q -0.3070408771890043 4.507904175850159 -0.26389564840096397 4.453829166288902 L -0.07157808603725235 4.212792687499893 L 0.02679241007950306 4.291280284550477 M 0.32793715968212234 5.121116054542435 L 0.33189031315714096 4.898487685331664 L 0.3057250576456918 4.883460490625447 L 0.20859806747136636 5.052577386004327 L 0.0994698066797125 4.989902988571083 L 0.35676470140566136 4.541902760057977 L 0.5399214899858056 4.647093123001492 Q 0.5928901779723977 4.677514029357979 0.6195945389709222 4.717462402532264 Q 0.6462988999694466 4.757410775706549 0.6462969262418392 4.800267703750658 Q 0.6462949525142319 4.843124631794766 0.6235709019828803 4.882691603543787 Q 0.5979147158990963 4.927363991002359 0.5525482939102146 4.9479863047153865 Q 0.5071818719213331 4.968608618428415 0.4496123560036609 4.955064883901212 L 0.4511053136750416 5.191853824744869 L 0.32793715968212234 5.121116054542435 M 0.3500736078762329 4.806241078018488 L 0.41772036602778434 4.845091874088218 Q 0.4477146833213968 4.862318170458759 0.47114173168144635 4.85625324847907 Q 0.49456878004149596 4.8501883264993815 0.5099624916917664 4.823384894024238 Q 0.5246231694539287 4.797857815476482 0.5180559005203658 4.774566597126253 Q 0.5114886315868029 4.751275378776024 0.48149431429319045 4.734049082405482 L 0.413847556141639 4.695198286335753 L 0.3500736078762329 4.806241078018488 M 0.931887094004998 5.2866609866014205 L 1.0871463681217075 5.342069519856192 L 1.0544949110251458 5.433561592103539 L 0.7807118160425555 5.335854580337313 L 0.9543582015106338 4.849283105203696 L 1.0728820223765145 4.891581583715151 L 0.931887094004998 5.2866609866014205 M 1.4265208657396597 4.997620570100463 L 1.2966999807428277 5.497671972876689 L 1.1748925877588754 5.466048936787717 L 1.3047134727557075 4.965997534011492 L 1.4265208657396597 4.997620570100463 M 1.8651868813806147 5.077221544402248 L 1.8493581656234956 5.176794767481541 L 1.6414899772973823 5.143750879112664 L 1.624390342756845 5.251319032512192 L 1.7799280780777829 5.276044179753239 L 1.7645615146055433 5.372710155443354 L 1.6090237792846054 5.347985008202307 L 1.5762109670581688 5.554399572833832 L 1.4519261411708773 5.534642562655239 L 1.5330338671672097 5.024420645854779 L 1.8651868813806147 5.077221544402248 M 2.072399097930531 5.188854202527156 L 2.068779123114918 5.293294659567958 L 2.2372077474976204 5.299132506277644 L 2.2338427004859236 5.39621800155501 L 2.065414076103221 5.390380154845324 L 2.0614881879229086 5.50364656600225 L 2.2519816975959213 5.510249196123685 L 2.2484891866822667 5.611012172282769 L 1.9322258308544848 5.600050276714364 L 1.9501217626894167 5.083731960921101 L 2.2663851185171984 5.094693856489506 L 2.262892607603544 5.195456832648591 L 2.072399097930531 5.188854202527156 M 3.2410001975936282 4.95584412158976 L 3.2085181772623015 5.488748971726193 L 3.0590406299551995 5.518137309259833 L 2.9125725273516396 5.20042169065059 L 2.8943986937908557 5.550507072340364 L 2.7449211464837537 5.579895409874004 L 2.516720101221535 5.0982426846150775 L 2.6488669184060747 5.072261690563599 L 2.7943484293128726 5.426922582269065 L 2.812064627060205 5.040175872773248 L 2.9478220130202786 5.013485015496319 L 3.107023685274105 5.365448426945075 L 3.1081312666539818 4.9819670882863285 L 3.2410001975936282 4.95584412158976 M 3.433079365787887 4.8689125070434205 L 3.6078842243378664 5.355068993194899 L 3.489461490531737 5.39764966386733 L 3.3146566319817574 4.911493177715851 L 3.433079365787887 4.8689125070434205 M 3.87176516273213 4.67125030509399 L 3.9152833419684065 4.7621983291125325 L 3.7918064626439616 4.821281404572003 L 3.971279245625687 5.196359021874752 L 3.8577601791499876 5.2506773331842655 L 3.6782873961682623 4.875599715881516 L 3.5548105168438178 4.934682791340987 L 3.511292337607541 4.843734767322444 L 3.87176516273213 4.67125030509399 M 4.315071454094525 4.380952154620635 L 4.604489015059995 4.808903487139451 L 4.500244459702847 4.879402636605398 L 4.381096774348117 4.703223241878992 L 4.218938577125887 4.812888585492688 L 4.338086262480617 4.989067980219096 L 4.23384170712347 5.059567129685043 L 3.9444241461580005 4.631615797166226 L 4.048668701515148 4.561116647700279 L 4.162044526679684 4.728761400467621 L 4.324202723901913 4.619096056853925 L 4.210826898737378 4.451451304086582 L 4.315071454094525 4.380952154620635 M 5.062287503353725 4.257643753076163 L 4.929324100160349 4.397281259528256 L 4.974097336289882 4.482595142226603 L 4.883255927237919 4.577996339382804 L 4.638016136710239 4.086361852052337 L 4.738499929963249 3.9808342708404494 L 5.241546624392591 4.2017212265767805 L 5.14969022752999 4.298188358896739 L 5.062287503353725 4.257643753076163 M 4.969606050711798 4.214105131176798 L 4.7884814124064095 4.130047377133417 L 4.881809605091744 4.30630852284173 L 4.969606050711798 4.214105131176798 M 5.163299466379044 3.4184268079009312 L 5.346675819752429 3.7619304515915393 L 5.487275425353933 3.8587967094108064 L 5.41587831290956 3.9624283152636393 L 5.275278707308055 3.8655620574443725 L 4.8889842448822405 3.8165903461776054 L 4.9699844777138695 3.6990199863211752 L 5.204941784223622 3.73935245803264 L 5.083134287494134 3.5347851021918317 L 5.163299466379044 3.4184268079009312 M 5.25048413071154 3.245068696853803 L 5.528929468016054 3.3792597144946948 Q 5.570696268611732 3.399388367140829 5.60314165674321 3.3896995317678535 Q 5.635587044874689 3.380010696394878 5.654757190251959 3.340232791065662 Q 5.673927335629229 3.3004548857364457 5.661610600143884 3.268376920513744 Q 5.6492938646585396 3.236298955291042 5.607527064062863 3.216170302644908 L 5.329081726758349 3.0819792850040164 L 5.383716641083569 2.96861225481575 L 5.661499013299262 3.102483770033688 Q 5.723817731648368 3.132516997791411 5.754130365503506 3.1798032588362646 Q 5.784442999358642 3.227089519881118 5.784754433740282 3.2823832433339852 Q 5.785065868121922 3.337676966786852 5.758547167016698 3.3927030691589346 Q 5.732028465911474 3.4477291715310168 5.689554691821296 3.4807695561027234 Q 5.647080917731117 3.5138099406744296 5.5915156123411185 3.5180752053460798 Q 5.535950306951119 3.52234047001773 5.4736315886020135 3.4923072422600066 L 5.19584921638632 3.3584357270420693 L 5.25048413071154 3.245068696853803 M 5.992522831776826 2.7668489445508326 L 5.774594683522249 2.8125254198764926 L 5.765765383088142 2.841378160310674 L 5.952252607845654 2.898445589945757 L 5.915427964571696 3.018782629317586 L 5.421412750308398 2.8676077779823848 L 5.483217853347148 2.6656385949431165 Q 5.501091803006438 2.6072293886983107 5.534097743201231 2.572306569117567 Q 5.567103683396025 2.5373837495368234 5.608886929847617 2.5278508275692904 Q 5.650670176299208 2.5183179056017577 5.694301149638702 2.5316695306484567 Q 5.743561925989742 2.5467439460237613 5.773760544446638 2.5863852819024458 Q 5.803959162903534 2.62602661778113 5.803562989648898 2.685166493962018 L 6.034085148454452 2.6310299468972485 L 5.992522831776826 2.7668489445508326 M 5.680614612538485 2.815320956590504 L 5.703441584392518 2.740726066687499 Q 5.713562977573081 2.707650973994657 5.702437990505162 2.686160405453493 Q 5.6913130034372434 2.664669836912329 5.661756537626619 2.6556251876871464 Q 5.633607522568881 2.647011236044115 5.612361142320402 2.6585957601957926 Q 5.591114762071921 2.6701802843474707 5.5809933688913596 2.7032553770403123 L 5.558166397037326 2.7778502669433176 L 5.680614612538485 2.815320956590504 M 5.630108170418521 1.9083257350921259 L 6.115567678072792 2.162911585215505 L 6.093257627212635 2.318814060004954 L 5.555880337650148 2.427029296073844 L 5.574854306138692 2.2944393408790793 L 5.979107859821288 2.2229313798628136 L 5.611238454504089 2.0401871740495574 L 5.630108170418521 1.9083257350921259 M 5.728181339241077 1.7104479003730977 L 5.8326844890445475 1.7103774325732362 L 5.8325708473109685 1.5418477050732737 L 5.929714620367715 1.5417821997945294 L 5.929828262101295 1.7103119272944918 L 6.043162664000833 1.7102355044692898 L 6.043034134703903 1.5196276467291576 L 6.143857596134011 1.5195596601898547 L 6.144070984542042 1.8360128602989547 L 5.627442736922069 1.8363612292813682 L 5.627229348514039 1.5199080291722682 L 5.728052809944147 1.5198400426329655 L 5.728181339241077 1.7104479003730977 M 5.6082191165461905 1.081387350526303 Q 5.631554187105084 1.0163094413815408 5.684685244347528 0.9748194019198273 Q 5.737816301589971 0.9333293624581138 5.813570839223409 0.9224094550153867 Q 5.88859696784114 0.9115945466826858 5.951647148603824 0.9363372280952169 Q 6.0146973293665065 0.9610799095077479 6.055514751744766 1.0172821014780558 Q 6.096332174123025 1.0734842934483637 6.107882076225909 1.1536092851760378 L 6.135496842162806 1.3451808563067493 L 5.624153713137105 1.4188902315451573 L 5.596538947200208 1.2273186604144457 Q 5.584884045987297 1.1464652596710654 5.6082191165461905 1.081387350526303 M 5.946771988665307 1.0727368440924505 Q 5.902496358891466 1.0389677100757093 5.831840684367972 1.049152623748253 Q 5.7611850098444775 1.0593375374207965 5.727520874937762 1.1043415762103432 Q 5.693856740031047 1.1493456149998902 5.704041653703591 1.2200012895233847 L 5.712546581615715 1.279002419795581 L 6.009737460023815 1.2361627829048822 L 6.0012325321116915 1.177161652632686 Q 5.991047618439148 1.1065059781091917 5.946771988665307 1.0727368440924505 M 5.844718398924089 0.4363232184613838 L 5.902963522606601 0.6201312851073605 L 5.999293657945405 0.6220303059565953 L 6.039087082140709 0.7476090995811366 L 5.490127066106992 0.7254748549133715 L 5.446109758896544 0.5865664686694654 L 5.882136481683252 0.25230950014579456 L 5.922374525143309 0.37929140878290074 L 5.844718398924089 0.4363232184613838 M 5.761894431919362 0.49653662021143946 L 5.600935090821509 0.6147056987786366 L 5.80035399832041 0.6179060687982867 L 5.761894431919362 0.49653662021143946" fill="#e9e9e5" fill-rule="nonzero"></path></g><g clip-path="url(&quot;#SvgjsClipPath1002&quot;)"><g clip-path="url(&quot;#SvgjsClipPath1000a82c0e42-0f87-4c5c-a2d4-5303b940518e&quot;)"><path d=" M 3.506844687739605 3.370418207461454 L 3.506844687739605 2.0649093519384776 C 3.503762455522468 1.442750196267102 3.0001652676582484 0.9391530084028641 2.378006111986854 0.9360707761857077 L 1.7787759375498144 0.9360707761857077 L 1.7787759375498144 1.3051064175280542 C 1.7817752028942717 1.4620966813519403 1.9083215261095265 1.5886430045671949 2.0653117899334 1.5916422699116397 L 2.378006111986854 1.5916422699116397 C 2.638113634214915 1.5946847741130157 2.848230689812259 1.8048018297103725 2.8512731940136415 2.0649093519384647 L 2.8512731940136415 2.6210786609189736 L 2.0653117899334 2.6210786609189736 C 1.3396454970165015 2.618212595389094 0.752025056308817 2.030771800184518 0.7489371085475393 1.3051064175280354 L 0.7489371085475393 -1.2627525233953385e-14 L 0.2861334143886946 -1.2627525233953385e-14 C 0.12927736379993376 0.0027920743884956873 0.0027920743885209423 0.12927736379990218 0 0.286133414388663 L 0 1.3051064175280542 C 0.003315369107319125 2.4443705260643993 0.9260476813972756 3.3671028383542803 2.065311789933526 3.370418207461454 Z" fill="#d4d6c9" transform="matrix(1,0,0,1,0,0)" fill-rule="evenodd"></path></g><g clip-path="url(&quot;#SvgjsClipPath1000a82c0e42-0f87-4c5c-a2d4-5303b940518e&quot;)"><path d=" M 0.9360707761857077 0 L 0.9360707761857077 1.3051064175280542 C 0.9393729016444956 1.9273306641646673 1.4430864058054498 2.4308646553163475 2.0653117899333493 2.433944993280824 L 2.6641395263754983 2.433944993280824 L 2.6641395263754983 2.0649093519384776 C 2.6611404127084546 1.9081413077388727 2.534774156186415 1.7817750512168582 2.3780061119868288 1.7787759375498018 L 2.0653117899333746 1.7787759375498018 C 1.804892448059173 1.77594622576988 1.5944719816915804 1.5655257594022873 1.5916422699116206 1.305106417528048 L 1.5916422699116206 0.7489371085475519 L 2.3780061119868288 0.7489371085475519 C 3.103515248558203 0.7520234852045719 3.6908919787207344 1.3394002153671158 3.693978355377723 2.064909351938484 L 3.693978355377723 3.370418207461454 L 4.156782049536618 3.370418207461454 C 4.313703152796011 3.367412170686775 4.440129979699066 3.2408075282747264 4.442915463925288 3.0838823550778685 L 4.442915463925288 2.0649093519384776 C 4.4396000984081 0.9258675028277352 3.517047961097439 0.003315365517130602 2.3780061119867533 0 Z" fill="#aac527" transform="matrix(1,0,0,1,0,0)" fill-rule="evenodd"></path></g></g></g><defs><clipPath id="SvgjsClipPath1002"><path d=" M 0 0 h 4.442915463925313 v 3.370418207461458 h -4.442915463925313 Z"></path></clipPath><clipPath id="SvgjsClipPath1000a82c0e42-0f87-4c5c-a2d4-5303b940518e"><path d=" M 0 0 L 4.442915463925313 0 L 4.442915463925313 3.370418207461458 L 0 3.370418207461458 Z"></path></clipPath></defs></svg>